<?xml version="1.0" encoding="utf-8"?>
<!-- Generator: Adobe Illustrator 26.2.0, SVG Export Plug-In . SVG Version: 6.00 Build 0)  -->
<svg version="1.1" xmlns="http://www.w3.org/2000/svg" xmlns:xlink="http://www.w3.org/1999/xlink" x="0px" y="0px"
	 viewBox="0 0 372.8 184.15" style="enable-background:new 0 0 372.8 184.15;" xml:space="preserve">
<style type="text/css">
	.st0{fill:#FFFFFF;}
	.st1{fill:#E51A2F;}
	.st2{fill:none;}
</style>
<g id="FD_BLANC">
	
		<rect x="85.16" y="-105.64" transform="matrix(-1.836970e-16 1 -1 -1.836970e-16 278.5334 -94.3827)" class="st0" width="202.59" height="395.43"/>
</g>
<g id="LOGO">
	<polygon points="230.68,55.97 244.74,55.97 244.74,47.85 212.84,47.85 207.81,55.97 221.64,55.97 221.64,91.84 230.68,91.84 	"/>
	<path class="st1" d="M86.72,77.56l-9.11-1.1c-0.55,2.63-1.76,4.75-3.62,6.29c-2.09,1.73-4.62,2.61-7.54,2.61
		c-3.78,0-6.78-1.33-8.9-3.96c-2.14-2.66-3.23-6.44-3.23-11.25c0-4.77,1.1-8.54,3.26-11.22c2.14-2.65,5.12-4,8.87-4
		c2.8,0,5.19,0.73,7.1,2.16c1.85,1.4,3.15,3.46,3.88,6.12L86.54,62c-1.05-4.72-3.29-8.43-6.69-11.01c-3.68-2.8-8.19-4.22-13.4-4.22
		c-6.51,0-11.8,2.12-15.74,6.31c-3.97,4.22-5.98,9.96-5.98,17.08c0,7.07,2.03,12.8,6.04,17.01c2.08,2.21,4.52,3.84,7.29,4.9
		c2.52-0.94,5.31-1.43,8.38-1.43c3,0,5.77,0.49,8.28,1.42c2-0.77,3.87-1.82,5.56-3.18C83.73,86.12,85.89,82.33,86.72,77.56z"/>
	<path class="st1" d="M202.6,47.85c0,0-9.84,16.49-11.03,18.59c-0.91-1.57-11.21-18.59-11.21-18.59h-10.49L186.8,75v17.64h9.22V75
		l11.79-19.03l5.03-8.11H202.6z"/>
	<g>
		<path d="M301.68,77.29h10.53c4.99,0,8.94-1.34,11.74-3.97c2.81-2.64,4.24-6.25,4.24-10.71c0-4.51-1.43-8.13-4.24-10.77
			c-2.81-2.64-6.76-3.97-11.74-3.97h-19.74v43.99h9.22V77.29z M301.68,55.9h10.16c2.29,0,4.07,0.58,5.27,1.73
			c1.2,1.14,1.8,2.81,1.8,4.98c0,2.16-0.61,3.83-1.8,4.95c-1.2,1.13-2.98,1.7-5.27,1.7h-10.16V55.9z"/>
		<path class="st1" d="M323.95,95.82c-2.81-2.64-6.76-3.97-11.74-3.97h-19.74v44.79h9.22v-15.35h10.53c4.99,0,8.94-1.34,11.74-3.97
			c2.81-2.64,4.24-6.25,4.24-10.71C328.19,102.09,326.76,98.46,323.95,95.82z M317.11,111.54c-1.2,1.13-2.98,1.7-5.27,1.7h-10.16
			V99.89h10.16c2.29,0,4.07,0.58,5.27,1.73c1.2,1.14,1.8,2.81,1.8,4.98C318.91,108.76,318.31,110.42,317.11,111.54z"/>
	</g>
	<polygon class="st1" points="230.68,91.84 221.64,91.84 212.84,91.84 207.66,100.2 221.4,100.2 221.4,136.63 230.68,136.63 
		230.68,100.2 244.74,100.2 244.74,91.84 	"/>
	<g>
		<path d="M275.11,92.07c2.91-1.07,5.47-2.72,7.64-4.97c4.05-4.22,6.11-9.92,6.11-16.96c0-7.03-2.05-12.74-6.11-16.96
			c-4.1-4.26-9.56-6.43-16.23-6.43c-6.67,0-12.13,2.16-16.23,6.43c-4.09,4.3-6.16,10-6.16,16.95c0,6.95,2.07,12.66,6.17,16.96
			c2.17,2.26,4.73,3.9,7.64,4.97c2.59-0.95,5.45-1.45,8.59-1.45C269.66,90.62,272.52,91.12,275.11,92.07z M257.23,81.26
			c-2.34-2.7-3.53-6.44-3.53-11.11c0-4.68,1.19-8.42,3.53-11.11l0.02-0.02c2.32-2.66,5.44-4.02,9.26-4.02
			c3.87,0,7.02,1.36,9.34,4.04c2.3,2.66,3.47,6.4,3.47,11.11c0,4.72-1.17,8.45-3.47,11.11c-2.33,2.68-5.47,4.04-9.34,4.04
			C262.68,85.29,259.56,83.94,257.23,81.26z"/>
		<path class="st1" d="M282.74,97.05c-2.17-2.26-4.73-3.91-7.64-4.98c-2.59-0.95-5.45-1.45-8.59-1.45c-3.14,0-6,0.5-8.59,1.45
			c-2.91,1.07-5.47,2.72-7.64,4.98c-4.09,4.3-6.16,10-6.16,16.95c0,6.95,2.07,12.66,6.17,16.96c4.1,4.26,9.56,6.42,16.23,6.42
			c6.67,0,12.13-2.16,16.23-6.42c4.05-4.22,6.11-9.92,6.11-16.96C288.85,106.97,286.79,101.27,282.74,97.05z M275.86,125.12
			c-2.33,2.68-5.47,4.04-9.34,4.04c-3.83,0-6.96-1.36-9.28-4.04c-2.34-2.7-3.53-6.44-3.53-11.11c0-4.68,1.19-8.42,3.53-11.11
			l0.02-0.02c2.32-2.66,5.44-4.02,9.26-4.02c3.87,0,7.02,1.36,9.34,4.04c2.3,2.66,3.47,6.4,3.47,11.11
			C279.32,118.72,278.16,122.46,275.86,125.12z"/>
	</g>
	<g>
		<path class="st2" d="M156.5,99.89h-10.16v13.35h10.16c2.3,0,4.07-0.57,5.28-1.7c1.19-1.12,1.8-2.78,1.8-4.95
			c0-2.16-0.61-3.84-1.8-4.98C160.57,100.47,158.8,99.89,156.5,99.89z"/>
		<path class="st2" d="M161.78,67.44c1.19-1.12,1.8-2.78,1.8-4.95c0-2.16-0.61-3.84-1.8-4.98c-1.2-1.15-2.98-1.73-5.27-1.73h-10.16
			v13.35h10.16C158.8,69.14,160.57,68.57,161.78,67.44z"/>
		<path class="st1" d="M146.35,77.19h10.53c4.99,0,8.94-1.34,11.74-3.97c2.81-2.65,4.24-6.25,4.24-10.71c0-4.5-1.43-8.13-4.24-10.77
			c-2.81-2.64-6.76-3.97-11.74-3.97h-19.74v44.1h9.22V77.19z M146.35,55.79h10.16c2.29,0,4.07,0.58,5.27,1.73
			c1.2,1.14,1.8,2.81,1.8,4.98c0,2.16-0.61,3.83-1.8,4.95c-1.2,1.13-2.98,1.7-5.28,1.7h-10.16V55.79z"/>
		<path d="M168.62,95.82c-2.81-2.64-6.76-3.97-11.74-3.97h-10.53h-9.22v44.79h9.22v-15.35h10.53c4.99,0,8.94-1.34,11.74-3.97
			c2.81-2.65,4.24-6.25,4.24-10.71C172.86,102.09,171.43,98.46,168.62,95.82z M161.78,111.54c-1.2,1.13-2.98,1.7-5.28,1.7h-10.16
			V99.89h10.16c2.29,0,4.07,0.58,5.27,1.73c1.2,1.14,1.8,2.81,1.8,4.98C163.58,108.76,162.97,110.42,161.78,111.54z"/>
	</g>
	<g>
		<path class="st2" d="M111.84,98.85c-3.82,0-6.94,1.35-9.26,4.02l-0.02,0.02c-2.34,2.7-3.53,6.44-3.53,11.11
			c0,4.68,1.19,8.42,3.53,11.11c2.32,2.68,5.45,4.04,9.28,4.04c3.87,0,7.02-1.36,9.34-4.04c2.3-2.66,3.47-6.4,3.47-11.11
			c0-4.72-1.17-8.45-3.47-11.11C118.86,100.21,115.71,98.85,111.84,98.85z"/>
		<path class="st2" d="M121.18,81.26c2.3-2.66,3.47-6.4,3.47-11.11c0-4.72-1.17-8.45-3.47-11.11c-2.33-2.68-5.47-4.04-9.34-4.04
			c-3.82,0-6.94,1.35-9.26,4.02l-0.02,0.02c-2.34,2.7-3.53,6.44-3.53,11.11c0,4.68,1.19,8.42,3.53,11.11
			c2.32,2.68,5.45,4.04,9.28,4.04C115.71,85.29,118.86,83.94,121.18,81.26z"/>
		<path class="st1" d="M120.43,92.07c2.91-1.07,5.47-2.72,7.64-4.97c4.05-4.22,6.11-9.92,6.11-16.96c0-7.03-2.05-12.74-6.11-16.96
			c-4.1-4.26-9.56-6.43-16.23-6.43c-6.67,0-12.13,2.16-16.23,6.43c-4.09,4.3-6.16,10-6.16,16.95c0,6.95,2.07,12.66,6.17,16.96
			c2.17,2.26,4.73,3.9,7.64,4.97c2.59-0.95,5.45-1.45,8.59-1.45C114.98,90.62,117.84,91.12,120.43,92.07z M102.56,81.26
			c-2.34-2.7-3.53-6.44-3.53-11.11c0-4.68,1.19-8.42,3.53-11.11l0.02-0.02c2.32-2.66,5.44-4.02,9.26-4.02
			c3.87,0,7.02,1.36,9.34,4.04c2.3,2.66,3.47,6.4,3.47,11.11c0,4.72-1.17,8.45-3.47,11.11c-2.33,2.68-5.47,4.04-9.34,4.04
			C108.01,85.29,104.88,83.94,102.56,81.26z"/>
		<path d="M128.07,97.05c-2.17-2.26-4.73-3.91-7.64-4.98c-2.59-0.95-5.45-1.45-8.59-1.45c-3.14,0-6,0.5-8.59,1.45
			c-2.91,1.07-5.47,2.72-7.64,4.98c-4.09,4.3-6.16,10-6.16,16.95c0,6.95,2.07,12.66,6.17,16.96c4.1,4.26,9.56,6.42,16.23,6.42
			c6.67,0,12.13-2.16,16.23-6.42c4.05-4.22,6.11-9.92,6.11-16.96C134.17,106.97,132.12,101.27,128.07,97.05z M121.18,125.12
			c-2.33,2.68-5.47,4.04-9.34,4.04c-3.83,0-6.96-1.36-9.28-4.04c-2.34-2.7-3.53-6.44-3.53-11.11c0-4.68,1.19-8.42,3.53-11.11
			l0.02-0.02c2.32-2.66,5.44-4.02,9.26-4.02c3.87,0,7.02,1.36,9.34,4.04c2.3,2.66,3.47,6.4,3.47,11.11
			C124.65,118.72,123.48,122.46,121.18,125.12z"/>
	</g>
	<path d="M208.62,116.8c-1.2,0-2.23,0.4-3.07,1.21c-0.83,0.8-1.25,1.79-1.25,2.97c0,1.16,0.42,2.14,1.25,2.94
		c0.84,0.81,1.86,1.21,3.07,1.21c1.19,0,2.21-0.4,3.05-1.21c0.83-0.8,1.25-1.78,1.25-2.94c0-1.18-0.42-2.17-1.25-2.97
		C210.83,117.2,209.81,116.8,208.62,116.8z M210.97,123.28c-0.65,0.61-1.43,0.92-2.35,0.92c-0.93,0-1.71-0.31-2.35-0.92
		c-0.63-0.6-0.95-1.37-0.95-2.3c0-0.93,0.32-1.71,0.95-2.33c0.63-0.61,1.42-0.92,2.35-0.92c0.92,0,1.7,0.31,2.35,0.92
		c0.62,0.62,0.93,1.4,0.93,2.33C211.9,121.91,211.59,122.68,210.97,123.28z"/>
	<path d="M210.39,121.95c-0.01-0.46-0.18-0.77-0.51-0.92c0.39-0.2,0.59-0.51,0.59-0.95c0-0.39-0.14-0.7-0.41-0.92
		c-0.27-0.22-0.66-0.33-1.15-0.33h-1.99v4.22h1.12v-1.49h0.71c0.19,0,0.31,0.04,0.39,0.11c0.07,0.07,0.11,0.21,0.12,0.42l0.03,0.44
		c0.01,0.21,0.05,0.38,0.13,0.52h1.18c-0.1-0.1-0.16-0.27-0.18-0.52L210.39,121.95z M208.8,120.69h-0.75v-0.92h0.74
		c0.35,0,0.52,0.15,0.52,0.46C209.31,120.53,209.14,120.69,208.8,120.69z"/>
	<path d="M202.6,91.84c0,0-9.84,16.49-11.03,18.59c-0.91-1.57-11.21-18.59-11.21-18.59h-10.49l16.94,27.15v17.64h9.22v-17.64
		l11.64-18.79l5.17-8.35H202.6z"/>
	<path d="M77.61,120.32c-0.55,2.63-1.76,4.75-3.62,6.29c-2.09,1.73-4.62,2.61-7.54,2.61c-3.78,0-6.78-1.33-8.9-3.96
		c-2.14-2.66-3.23-6.44-3.23-11.25c0-4.77,1.1-8.54,3.26-11.22c2.14-2.65,5.12-4,8.87-4c2.8,0,5.19,0.73,7.1,2.16
		c1.85,1.4,3.15,3.46,3.88,6.12l9.12-1.21c-1.05-4.72-3.29-8.43-6.69-11.01c-1.56-1.19-3.28-2.11-5.12-2.8
		c-2.51-0.94-5.27-1.42-8.28-1.42c-3.07,0-5.87,0.49-8.38,1.43c-2.81,1.05-5.28,2.67-7.35,4.87c-3.97,4.22-5.98,9.96-5.98,17.08
		c0,7.07,2.03,12.8,6.04,17.01c3.97,4.22,9.25,6.37,15.68,6.37c5.34,0,10-1.57,13.84-4.66c3.44-2.74,5.6-6.54,6.44-11.3
		L77.61,120.32z"/>
</g>
</svg>
